<svg xmlns="http://www.w3.org/2000/svg"  viewBox="0 0 40 40" width="40px" height="40px"><path fill="#98ccfd" d="M20 1A19 19 0 1 0 20 39A19 19 0 1 0 20 1Z"/><path fill="#fff" d="M38.892 22.007c.003-.027.008-.053.011-.08C38.9 21.953 38.895 21.98 38.892 22.007zM1.097 21.92c.004.036.01.072.014.108C1.108 21.992 1.1 21.956 1.097 21.92zM22.572 25.036h4.917l.772-4.995h-5.69v-2.73c0-2.075.678-3.915 2.619-3.915h3.119v-4.36C27.762 8.963 26.604 8.8 24.414 8.8c-4.573 0-7.254 2.415-7.254 7.917v3.323h-4.701v4.995h4.701v13.402c.929.14 1.872.235 2.84.235.875 0 1.729-.08 2.572-.194V25.036z"/><g><path fill="#4788c7" d="M20,2c9.925,0,18,8.075,18,18s-8.075,18-18,18S2,29.925,2,20S10.075,2,20,2 M20,1C9.507,1,1,9.507,1,20s8.507,19,19,19s19-8.507,19-19S30.493,1,20,1L20,1z"/></g></svg>