<svg xmlns="http://www.w3.org/2000/svg"  viewBox="0 0 40 40" width="40px" height="40px"><path fill="#98ccfd" d="M2.5 2.5H37.5V37.5H2.5z"/><path fill="#4788c7" d="M37,3v34H3V3H37 M38,2H2v36h36V2L38,2z"/><path fill="#fff" d="M20.154 25.445C18.779 27.141 16.824 28 14.343 28 9.93 28 6.34 24.411 6.34 20s3.589-8 8.002-8c1.797 0 3.527.599 4.93 1.699l-1.616 1.616c-.967-.684-2.125-1.056-3.314-1.056-3.167 0-5.743 2.576-5.743 5.742s2.576 5.742 5.743 5.742c2.493 0 4.491-1.459 5.213-3.808L19.783 21H15v-2h6.941C22.176 20.81 21.734 23.498 20.154 25.445zM28 15H30V25H28z"/><path fill="#fff" d="M28 15H30V25H28z" transform="rotate(90 29 20)"/></svg>