<svg xmlns="http://www.w3.org/2000/svg"  viewBox="0 0 40 40" width="40px" height="40px"><path fill="#98ccfd" d="M2.5 2.5H37.5V37.5H2.5z"/><path fill="#4788c7" d="M37,3v34H3V3H37 M38,2H2v36h36V2L38,2z"/><path fill="#fff" d="M8 16L13 16 13 27.061 13 32 8 32zM10.5 14L10.5 14C9 14 8 12.867 8 11.467S9 9 10.5 9s2.438 1.067 2.5 2.467C13 12.867 12.062 14 10.5 14z"/><g><path fill="#fff" d="M25.948,16C22.678,16,21,18.156,21,18.156V16h-5v16h5v-9c0-1.657,1.343-3,3-3s3,1.343,3,3v9h5 v-9.044C32,18.296,29.287,16,25.948,16z"/></g></svg>